<svg width="143" height="36" viewBox="0 0 143 36" fill="none" xmlns="http://www.w3.org/2000/svg">
<path d="M6.08407 29.4485L6.08806 29.4529C8.98094 32.5988 12.6539 34.1768 17.0199 34.1768C21.3858 34.1768 25.0588 32.5988 27.9516 29.4529C30.8296 26.3231 32.2565 22.4731 32.2565 17.9797C32.2565 13.4873 30.8301 9.64918 27.9498 6.54514C25.0572 3.4005 21.3849 1.82317 17.0199 1.82317C12.6539 1.82317 8.98094 3.40117 6.08806 6.54714L6.0878 6.54743C3.23456 9.65234 1.82317 13.4897 1.82317 17.9797C1.82317 22.4697 3.23444 26.3183 6.08408 29.4485L6.08407 29.4485ZM9.27654 9.37867L9.27655 9.37869L9.28064 9.37398C11.2546 7.10183 13.7993 5.96303 17.0199 5.96303C20.2404 5.96303 22.7851 7.10183 24.7591 9.37398L24.759 9.37403L24.7678 9.38392C26.7918 11.6614 27.8258 14.4992 27.8258 17.9797C27.8258 21.46 26.7917 24.3142 24.7637 26.6208L24.7636 26.6208L24.7591 26.626C22.7851 28.8982 20.2404 30.037 17.0199 30.037C13.83 30.037 11.2819 28.9008 9.27833 26.6234C7.27624 24.3176 6.25384 21.4625 6.25384 17.9797C6.25384 14.4954 7.27698 11.6558 9.27654 9.37867ZM98.5139 29.5412L98.5179 29.545C101.72 32.6256 105.581 34.1768 110.038 34.1768C111.665 34.1768 113.326 34.0058 115.021 33.6672C116.417 33.3925 117.639 33.0175 118.667 32.5263C119.66 32.0517 119.971 30.9068 119.583 30.0137C119.145 29.0038 118.005 28.587 117.042 28.9396C115.07 29.6617 112.743 30.037 110.038 30.037C106.762 30.037 103.971 28.8795 101.606 26.5275C99.2718 24.1528 98.114 21.3123 98.114 17.9391C98.114 14.5139 99.1344 11.6835 101.141 9.37398C103.119 7.09743 105.639 5.96303 108.8 5.96303C111.359 5.96303 114.042 6.35212 116.852 7.14144C117.9 7.43565 119.025 6.86474 119.367 5.79573C119.705 4.73755 119.133 3.57327 118.034 3.23957C114.933 2.29781 111.854 1.82317 108.8 1.82317C104.411 1.82317 100.746 3.3992 97.9026 6.55333C95.0774 9.65992 93.6834 13.5095 93.6834 18.0203C93.6834 22.5547 95.2993 26.4199 98.5139 29.5412ZM38.7626 31.5542C38.7626 32.7336 39.7187 33.6897 40.898 33.6897C42.0774 33.6897 43.0335 32.7336 43.0335 31.5542V21.0636C43.0335 19.7638 44.0873 18.71 45.3872 18.71H52.6078C53.7174 18.71 54.6168 17.8105 54.6168 16.7009C54.6168 15.5914 53.7174 14.6919 52.6078 14.6919H45.3871C44.0873 14.6919 43.0335 13.6381 43.0335 12.3382V8.72264C43.0335 7.42275 44.0873 6.36898 45.3871 6.36898H53.666C54.7867 6.36898 55.6953 5.46042 55.6953 4.33965C55.6953 3.21888 54.7867 2.31032 53.666 2.31032H43.4699C40.8701 2.31032 38.7626 4.41786 38.7626 7.01763V31.5542ZM60.8402 31.5542C60.8402 32.7336 61.7963 33.6897 62.9757 33.6897C64.1551 33.6897 65.1111 32.7336 65.1111 31.5542V21.0636C65.1111 19.7638 66.1649 18.71 67.4648 18.71H74.6855C75.795 18.71 76.6945 17.8105 76.6945 16.7009C76.6945 15.5914 75.795 14.6919 74.6855 14.6919H67.4648C66.1649 14.6919 65.1111 13.6381 65.1111 12.3382V8.72264C65.1111 7.42275 66.1649 6.36898 67.4648 6.36898H75.7436C76.8644 6.36898 77.7729 5.46043 77.7729 4.33965C77.7729 3.21887 76.8644 2.31032 75.7436 2.31032H65.5476C62.9478 2.31032 60.8402 4.41786 60.8402 7.01763V31.5542ZM82.9179 31.5542C82.9179 32.7336 83.874 33.6897 85.0533 33.6897C86.2327 33.6897 87.1888 32.7336 87.1888 31.5542V4.44577C87.1888 3.26639 86.2327 2.31032 85.0533 2.31032C83.874 2.31032 82.9179 3.26639 82.9179 4.44577V31.5542ZM125.123 28.9824C125.123 31.5821 127.23 33.6897 129.83 33.6897H139.148C140.268 33.6897 141.177 32.7811 141.177 31.6604C141.177 30.5396 140.268 29.631 139.148 29.631H131.747C130.448 29.631 129.394 28.5772 129.394 27.2774V21.0636C129.394 19.7638 130.448 18.71 131.747 18.71H137.65C138.76 18.71 139.659 17.8105 139.659 16.7009C139.659 15.5914 138.76 14.6919 137.65 14.6919H131.747C130.448 14.6919 129.394 13.6381 129.394 12.3382V8.72264C129.394 7.42275 130.448 6.36898 131.747 6.36898H138.708C139.829 6.36898 140.737 5.46043 140.737 4.33965C140.737 3.21887 139.829 2.31032 138.708 2.31032H129.83C127.23 2.31032 125.123 4.41786 125.123 7.01763V28.9824Z" fill="#F5F6F7" stroke="#F5F6F7" stroke-width="2.35366"/>
</svg>
