<svg width="84" height="20" viewBox="0 0 84 20" fill="none" xmlns="http://www.w3.org/2000/svg">
<path d="M68.0093 19.1981C68.8335 19.0355 69.548 18.8149 70.1438 18.5295C70.6288 18.2972 70.7849 17.7354 70.5926 17.2914C70.3759 16.7909 69.8092 16.5812 69.3273 16.758C68.1201 17.2008 66.703 17.4283 65.0668 17.4283C63.0506 17.4283 61.3287 16.7116 59.8752 15.2621C58.4393 13.7983 57.7252 12.0416 57.7252 9.96346C57.7252 7.86327 58.3508 6.1155 59.5873 4.68876C60.8116 3.27611 62.3772 2.57172 64.3256 2.57172C65.8773 2.57172 67.501 2.80819 69.1984 3.28589C69.7234 3.43364 70.2858 3.14713 70.456 2.61364C70.6244 2.08564 70.3385 1.507 69.7931 1.34096C67.9551 0.781392 66.1321 0.5 64.3256 0.5C61.7527 0.5 59.6151 1.42357 57.9539 3.27109C56.3006 5.0934 55.482 7.35202 55.482 10.0122C55.482 12.6777 56.4273 14.943 58.3109 16.7764L58.3126 16.7781C60.1911 18.5894 62.4513 19.5 65.0668 19.5C66.0262 19.5 67.0072 19.3989 68.0093 19.1981ZM68.0093 19.1981C68.0095 19.1981 68.0097 19.198 68.01 19.198L67.9117 18.7077L68.0085 19.1983C68.0087 19.1982 68.009 19.1982 68.0093 19.1981ZM2.99667 16.7299L2.99836 16.7318C4.68979 18.5757 6.83312 19.5 9.39145 19.5C11.9498 19.5 14.0931 18.5757 15.7845 16.7318C17.4696 14.8948 18.3068 12.636 18.3068 9.98782C18.3068 7.34011 17.4698 5.08866 15.7838 3.26739C14.0924 1.42405 11.9494 0.5 9.39145 0.5C6.83312 0.5 4.68979 1.42434 2.99836 3.26823L2.99825 3.26836C1.32834 5.08999 0.5 7.34112 0.5 9.98782C0.5 12.6345 1.32829 14.8928 2.99667 16.7299ZM4.60358 4.69076L4.60359 4.69077L4.60532 4.68876C5.828 3.27799 7.4085 2.57172 9.39145 2.57172C11.3744 2.57172 12.9549 3.27799 14.1776 4.68876L14.1775 4.68879L14.1813 4.69299C15.4299 6.10137 16.0636 7.85467 16.0636 9.98782C16.0636 12.1209 15.4298 13.8835 14.1795 15.309L14.1776 15.3112C12.9549 16.722 11.3744 17.4283 9.39145 17.4283C7.42615 17.4283 5.84423 16.7231 4.60436 15.3101C3.3697 13.885 2.74318 12.122 2.74318 9.98782C2.74318 7.85306 3.37 6.09898 4.60358 4.69076ZM22.6097 18.1339C22.6097 18.727 23.0905 19.2077 23.6835 19.2077C24.2765 19.2077 24.7573 18.727 24.7573 18.1339V11.2199C24.7573 10.6676 25.205 10.2199 25.7573 10.2199H30.6911C31.243 10.2199 31.6904 9.77248 31.6904 9.22057C31.6904 8.66866 31.243 8.22125 30.6911 8.22125H25.7573C25.205 8.22125 24.7573 7.77353 24.7573 7.22125V3.81529C24.7573 3.26301 25.205 2.81529 25.7573 2.81529H31.3244C31.883 2.81529 32.3359 2.36243 32.3359 1.80379C32.3359 1.24515 31.883 0.792287 31.3244 0.792287H24.6097C23.5052 0.792287 22.6097 1.68772 22.6097 2.79229V18.1339ZM35.8241 18.1339C35.8241 18.727 36.3048 19.2077 36.8979 19.2077C37.4909 19.2077 37.9716 18.727 37.9716 18.1339V11.2199C37.9716 10.6676 38.4193 10.2199 38.9716 10.2199H43.9054C44.4573 10.2199 44.9047 9.77248 44.9047 9.22057C44.9047 8.66866 44.4573 8.22125 43.9054 8.22125H38.9716C38.4193 8.22125 37.9716 7.77353 37.9716 7.22125V3.81529C37.9716 3.26301 38.4193 2.81529 38.9716 2.81529H44.5387C45.0974 2.81529 45.5502 2.36243 45.5502 1.80379C45.5502 1.24515 45.0974 0.792287 44.5387 0.792287H37.8241C36.7195 0.792287 35.8241 1.68772 35.8241 2.79229V18.1339ZM49.0384 18.1339C49.0384 18.727 49.5192 19.2077 50.1122 19.2077C50.7052 19.2077 51.186 18.727 51.186 18.1339V1.86606C51.186 1.27303 50.7052 0.792287 50.1122 0.792287C49.5192 0.792287 49.0384 1.27304 49.0384 1.86606V18.1339ZM74.2998 17.2077C74.2998 18.3123 75.1952 19.2077 76.2998 19.2077H82.4885C83.0471 19.2077 83.5 18.7548 83.5 18.1962C83.5 17.6376 83.0471 17.1847 82.4885 17.1847H77.4474C76.8951 17.1847 76.4474 16.737 76.4474 16.1847V11.2199C76.4474 10.6676 76.8951 10.2199 77.4474 10.2199H81.5922C82.1441 10.2199 82.5915 9.77248 82.5915 9.22057C82.5915 8.66866 82.1441 8.22125 81.5922 8.22125H77.4474C76.8951 8.22125 76.4474 7.77353 76.4474 7.22125V3.81529C76.4474 3.26301 76.8951 2.81529 77.4474 2.81529H82.2255C82.7842 2.81529 83.237 2.36242 83.237 1.80379C83.237 1.24516 82.7842 0.792287 82.2255 0.792287H76.2998C75.1952 0.792287 74.2998 1.68772 74.2998 2.79229V17.2077Z" fill="#1A7D78" stroke="#1A7D78"/>
</svg>
