<svg width="28" height="24" viewBox="0 0 28 24" fill="none" xmlns="http://www.w3.org/2000/svg">
<path d="M2.09436 10.3748L2.10189 10.3718L2.10931 10.3686C9.56658 7.11956 14.535 4.97948 17.0183 3.94656C20.5719 2.46854 22.7061 1.60611 24.0706 1.11096C25.4438 0.612676 25.9854 0.506994 26.3766 0.500103C26.443 0.498933 26.572 0.507188 26.7116 0.540537C26.8544 0.574645 26.9701 0.625952 27.0439 0.685823C27.1567 0.777349 27.2014 0.90671 27.2301 1.0746L27.723 0.990257L27.2301 1.0746C27.2593 1.24517 27.2963 1.65232 27.268 1.94982C26.8855 5.9689 25.2241 15.7631 24.3764 20.2948C24.0267 22.164 23.3991 22.4813 23.074 22.5112C22.4788 22.566 21.9334 22.3753 21.3296 22.0206C21.0262 21.8424 20.7194 21.6296 20.3886 21.3946C20.3344 21.3562 20.2796 21.3171 20.2242 21.2775C19.9456 21.0789 19.6503 20.8684 19.3419 20.6662C18.2202 19.9309 17.3425 19.3344 16.4704 18.7406L16.3545 18.6616C15.5209 18.094 14.6824 17.5229 13.6347 16.8325C13.0295 16.4337 12.7419 16.1217 12.6211 15.8902C12.5191 15.695 12.524 15.538 12.6062 15.3505C12.7034 15.1289 12.9064 14.8778 13.2187 14.5599C13.3537 14.4226 13.4995 14.282 13.6562 14.131C13.6764 14.1115 13.6967 14.0919 13.7172 14.0722C13.895 13.9006 14.0838 13.7172 14.2707 13.5232C14.3534 13.4372 14.7659 13.0539 15.3564 12.5051C16.0361 11.8733 16.9517 11.0223 17.8715 10.1536C18.7219 9.35055 19.5682 8.53929 20.2111 7.89349C20.5319 7.57128 20.807 7.28528 21.008 7.05977C21.1079 6.94767 21.1954 6.84387 21.2627 6.75418C21.2961 6.70952 21.3295 6.66185 21.358 6.61385C21.3816 6.57418 21.4235 6.49917 21.4452 6.40648C21.4684 6.30764 21.4773 6.16404 21.4556 6.01742C21.4339 5.87111 21.3696 5.64237 21.1716 5.46636C20.9755 5.29203 20.7483 5.25232 20.5822 5.25102C20.4254 5.24979 20.2798 5.28285 20.2024 5.30043L20.1992 5.30115C20.1128 5.32076 20.0297 5.36485 19.9983 5.38151L19.9944 5.38355C19.9436 5.4104 19.8821 5.44551 19.8124 5.48677C19.6721 5.56984 19.4808 5.68855 19.2404 5.84125C18.7588 6.14725 18.0673 6.59813 17.1675 7.19286C15.3673 8.38277 12.7248 10.1539 9.24101 12.5055L9.241 12.5055L9.23772 12.5078C8.26281 13.1772 7.4412 13.4594 6.75768 13.4447C6.36174 13.4361 5.7414 13.3199 5.02774 13.1409C4.32568 12.9649 3.57155 12.7382 2.9254 12.5281C2.71571 12.46 2.51737 12.3976 2.33058 12.3388C1.76934 12.1622 1.31233 12.0184 0.964486 11.8499C0.738809 11.7405 0.615876 11.6457 0.554439 11.5702C0.508924 11.5142 0.492662 11.4668 0.502846 11.3855C0.506093 11.3596 0.543731 11.2341 0.823862 11.026C1.09094 10.8277 1.50682 10.6084 2.09436 10.3748Z" fill="#F5F6F7" stroke="#F5F6F7"/>
</svg>
