<svg width="31" height="21" viewBox="0 0 31 21" fill="none" xmlns="http://www.w3.org/2000/svg">
<path d="M17.0316 19.6022C12.2034 19.6022 8.42946 17.9512 5.78846 14.9538C3.13748 11.9451 1.58157 7.52659 1.3124 1.91534C1.29965 1.64958 1.51544 1.41846 1.79875 1.41846H4.90436C5.17115 1.41846 5.40568 1.63668 5.42072 1.92718C5.7885 9.03291 8.57714 12.7759 11.3718 14.1939C11.841 14.432 12.3403 14.3588 12.7089 14.0949C13.0695 13.8367 13.3005 13.4027 13.3005 12.9167V1.91846C13.3005 1.64231 13.5244 1.41846 13.8005 1.41846H16.6096C16.8858 1.41846 17.1096 1.64231 17.1096 1.91846V7.38666C17.1096 7.83016 17.3044 8.23834 17.6233 8.5015C17.9494 8.77054 18.4033 8.88259 18.8623 8.71889C21.4452 7.79785 23.8499 4.95168 24.9386 1.81023C25.0225 1.56787 25.236 1.41846 25.4547 1.41846H28.3156C28.641 1.41846 28.8304 1.69837 28.7635 1.94609C27.9308 5.03229 25.9751 7.48994 24.147 9.01649C23.7026 9.38756 23.5153 9.9405 23.5387 10.4552C23.5621 10.9699 23.799 11.5037 24.2768 11.8321C26.2266 13.1726 28.51 15.5017 29.7628 19.0258C29.857 19.2909 29.6606 19.6022 29.3182 19.6022H26.0618C25.8494 19.6022 25.6411 19.4611 25.5521 19.2284C24.3744 16.1501 21.981 13.7057 18.8179 12.9463C17.8804 12.7213 17.1096 13.4884 17.1096 14.3545V19.5242C17.1096 19.5673 17.0747 19.6022 17.0316 19.6022Z" fill="#F5F6F7" stroke="#F5F6F7"/>
</svg>
